<svg xmlns="http://www.w3.org/2000/svg" width="256" height="256" version="1.1" style=""><rect id="backgroundrect" width="100%" height="100%" x="0" y="0" fill="none" stroke="none" class="" style=""/> <g class="currentLayer" style=""><title>Layer 1</title><g data-v-b90af754="" fill="#ff4400" class="icon-svg-group iconsvg" id="svg_3"><g class="iconsvg-imagesvg" id="svg_4"><rect fill="#ff4400" fill-opacity="0" stroke-width="2" x="56.781712423052305" y="0.1911468505859375" width="142.47108872275058" height="161.6014660746426" id="svg_5"/> <g id="svg_1" transform="matrix(3.5617772180687637,0,0,3.544452921999604,-183.12249966350828,-5.979769960918449) "><svg x="67.355198654631" y="1.7410068485330759" width="40" height="45.59278106689453" class="imagesvg-svg" id="svg_6"><g id="svg_2"><svg xmlns="http://www.w3.org/2000/svg" viewBox="0 0 267.13 304.48" id="svg_7"><g id="svg_8"><g id="svg_9"><path fill="#f6911f" d="M63.36 121.57v73.17l-31.68-18.3L0 158.15l31.68-18.29 31.68-18.29z" id="svg_10"/><path fill="#ffdd29" d="M0 158.15V84.99l31.68 18.29 31.68 18.29-31.68 18.29L0 158.15z" id="svg_11"/><path fill="#a51e24" d="M63.36 267.9v-73.16l31.69 18.29 31.68 18.29-31.68 18.29-31.69 18.29z" id="svg_12"/><path fill="#f1592a" d="M0 231.32l31.68-18.29 31.68-18.29-31.68-18.3L0 158.15v73.17z" id="svg_13"/><path fill="#781c20" d="M126.73 231.32l-31.68 18.29-31.69 18.29 31.69 18.29 31.68 18.29v-73.16z" id="svg_14"/><path fill="#d02128" d="M63.36 194.74v73.16l-31.68-18.29L0 231.32l31.68-18.29 31.68-18.29z" id="svg_15"/><path fill="#b367b2" d="M203.77 121.57v73.17l31.68-18.3 31.68-18.29-31.68-18.29-31.68-18.29z" id="svg_16"/><path fill="#d9b3da" d="M267.13 158.15V84.99l-31.68 18.29-31.68 18.29 31.68 18.29 31.68 18.29z" id="svg_17"/><path fill="#4d014c" d="M203.76 267.9l.01-36.58v-36.58l-31.69 18.29-31.68 18.29 31.68 18.29 31.68 18.29z" id="svg_18"/><path fill="#9a3198" d="M267.13 231.32l-31.68-18.29-31.68-18.29 31.68-18.3 31.68-18.29v73.17z" id="svg_19"/><path fill="#340033" d="M140.4 231.32l31.68 18.29 31.68 18.29-31.68 18.29-31.68 18.29v-73.16z" id="svg_20"/><path fill="#690067" d="M203.77 194.74v36.58l-.01 36.58 31.69-18.29 31.68-18.29-31.68-18.29-31.68-18.29z" id="svg_21"/><path fill="#042f85" d="M196.93 109.75l-31.68-18.29-31.69-18.29 31.69-18.29 31.68-18.3v73.17z" id="svg_22"/><path fill="#0d2659" d="M196.93 36.58l31.68 18.29 31.68 18.3-31.68 18.29-31.68 18.29V36.58z" id="svg_23"/><path fill="#027fcc" d="M70.2 36.58l31.68 18.3 31.68 18.29-31.68 18.29-31.68 18.29V36.58z" id="svg_24"/><path fill="#1845a2" d="M133.56 0v73.17l31.69-18.29 31.68-18.3-31.68-18.29L133.56 0z" id="svg_25"/><path fill="#0daee2" d="M70.2 109.75V36.58l-31.68 18.3L6.84 73.17l31.68 18.29 31.68 18.29z" id="svg_26"/><path fill="#0d51d9" d="M133.56 73.17l-31.68-18.29-31.68-18.3 31.68-18.29L133.56 0v73.17z" id="svg_27"/></g></g></svg></g></svg></g> <!----></g> <g id="svg_28"><g class="tp-name iconsvg-namesvg" id="svg_29"><g id="svg_30"><path d="M99.8441544302259,230.28877731932383 L99.8441544302259,230.28877731932383 L99.8441544302259,230.28877731932383 Q99.8441544302259,235.49912311466332 97.95641250464942,240.1423564424827 L97.95641250464942,240.1423564424827 L97.95641250464942,240.1423564424827 Q96.06867057907301,244.78558977030227 92.79183553844966,248.2591536338618 L92.79183553844966,248.2591536338618 L92.79183553844966,248.2591536338618 Q89.47938272564566,251.76816202664142 84.92030788651769,253.78850019218123 L84.92030788651769,253.78850019218123 L84.92030788651769,253.78850019218123 Q80.39685081957042,255.80883835772096 75.08980276464793,255.80883835772096 L75.08980276464793,255.80883835772096 L75.08980276464793,255.80883835772096 Q69.81837248190621,255.80883835772096 65.11682655405545,253.78850019218123 L65.11682655405545,253.78850019218123 L65.11682655405545,253.78850019218123 Q60.45089839838537,251.76816202664142 56.96035672467787,248.2591536338618 L56.96035672467787,248.2591536338618 L56.96035672467787,248.2591536338618 Q53.469815050970524,244.78558977030227 51.47521980885204,240.1423564424827 L51.47521980885204,240.1423564424827 L51.47521980885204,240.1423564424827 Q49.44500679455284,235.49912311466332 49.44500679455284,230.28877731932383 L49.44500679455284,230.28877731932383 L49.44500679455284,230.28877731932383 Q49.44500679455284,224.0859847058245 50.691628820876936,218.16674832608524 L50.691628820876936,218.16674832608524 L50.691628820876936,218.16674832608524 Q51.90263307502031,212.24751194634592 54.25340603894569,206.96627709256651 L54.25340603894569,206.96627709256651 L54.25340603894569,206.96627709256651 Q56.60417900287102,201.68504223878705 59.98786736003633,197.21903155706755 L59.98786736003633,197.21903155706755 L59.98786736003633,197.21903155706755 Q63.40717348938236,192.7530208753481 67.68130615106493,189.42123512866837 L67.68130615106493,189.42123512866837 L85.16963229178256,189.42123512866837 L85.16963229178256,189.42123512866837 Q82.46268160605024,191.1934615896682 79.89820200904072,193.355577872088 L79.89820200904072,193.355577872088 L79.89820200904072,193.355577872088 Q77.33372241203124,195.5176941545077 74.98294944810584,197.99881119990746 L74.98294944810584,197.99881119990746 L74.98294944810584,197.99881119990746 Q72.6677942563611,200.47992824530718 70.67319901424263,203.2091569952469 L70.67319901424263,203.2091569952469 L70.67319901424263,203.2091569952469 Q68.6786037721242,205.93838574518654 67.14703956835464,208.9157261996662 L67.14703956835464,208.9157261996662 L67.14703956835464,208.9157261996662 Q69.07039926611169,207.60427861852645 71.38555445785644,206.68272085880648 L71.38555445785644,206.68272085880648 L71.38555445785644,206.68272085880648 Q73.66509187742038,205.7611630990866 76.05148261352655,205.7611630990866 L76.05148261352655,205.7611630990866 L76.05148261352655,205.7611630990866 Q81.53661952935236,205.7611630990866 85.91760550757691,207.60427861852645 L85.91760550757691,207.60427861852645 L85.91760550757691,207.60427861852645 Q90.3342092579822,209.41194960874623 93.39733766552145,212.67284629698577 L93.39733766552145,212.67284629698577 L93.39733766552145,212.67284629698577 Q96.49608384524117,215.93374298522536 98.17011913773347,220.43519819616495 L98.17011913773347,220.43519819616495 L98.17011913773347,220.43519819616495 Q99.8441544302259,224.93665340710444 99.8441544302259,230.28877731932383 zM86.84366758427485,230.28877731932383 L86.84366758427485,230.28877731932383 L86.84366758427485,230.28877731932383 Q86.84366758427485,227.7367712154841 86.024458824119,225.4683213454044 L86.024458824119,225.4683213454044 L86.024458824119,225.4683213454044 Q85.16963229178256,223.1998714753246 83.638068088013,221.46308954354478 L83.638068088013,221.46308954354478 L83.638068088013,221.46308954354478 Q82.10650388424337,219.72630761176504 79.9338197812215,218.73386079360515 L79.9338197812215,218.73386079360515 L79.9338197812215,218.73386079360515 Q77.76113567819951,217.74141397544525 75.08980276464793,217.74141397544525 L75.08980276464793,217.74141397544525 L75.08980276464793,217.74141397544525 Q72.41846985109636,217.74141397544525 70.24578574807447,218.73386079360515 L70.24578574807447,218.73386079360515 L70.24578574807447,218.73386079360515 Q68.10871941723308,219.72630761176504 66.57715521346364,221.46308954354478 L66.57715521346364,221.46308954354478 L66.57715521346364,221.46308954354478 Q65.04559100969401,223.1998714753246 64.2620000217189,225.4683213454044 L64.2620000217189,225.4683213454044 L64.2620000217189,225.4683213454044 Q63.442791261563016,227.7367712154841 63.442791261563016,230.28877731932383 L63.442791261563016,230.28877731932383 L63.442791261563016,230.28877731932383 Q63.442791261563016,232.76989436472354 64.2620000217189,235.03834423480336 L64.2620000217189,235.03834423480336 L64.2620000217189,235.03834423480336 Q65.11682655405545,237.30679410488307 66.64839075782496,239.0790205658829 L66.64839075782496,239.0790205658829 L66.64839075782496,239.0790205658829 Q68.1799549615945,240.81580249766273 70.31702129243573,241.8436938450425 L70.31702129243573,241.8436938450425 L70.31702129243573,241.8436938450425 Q72.48970539545778,242.90702972164243 75.08980276464793,242.90702972164243 L75.08980276464793,242.90702972164243 L75.08980276464793,242.90702972164243 Q77.76113567819951,242.90702972164243 79.9338197812215,241.9145829034825 L79.9338197812215,241.9145829034825 L79.9338197812215,241.9145829034825 Q82.10650388424337,240.92213608532262 83.638068088013,239.18535415354282 L83.638068088013,239.18535415354282 L83.638068088013,239.18535415354282 Q85.16963229178256,237.44857222176304 86.024458824119,235.1446778224633 L86.024458824119,235.1446778224633 L86.024458824119,235.1446778224633 Q86.84366758427485,232.8762279523836 86.84366758427485,230.28877731932383 zM154.5174347275814,186.62111732028873 L154.5174347275814,253.9657228382812 L151.52554186440364,253.9657228382812 L146.71714262001083,247.33759587414195 L146.71714262001083,247.33759587414195 Q144.97187178315707,248.93259968904172 143.0128943132192,250.31493632862163 L143.0128943132192,250.31493632862163 L143.0128943132192,250.31493632862163 Q141.01829907110084,251.66182843898144 138.84561496807885,252.68971978636128 L138.84561496807885,252.68971978636128 L138.84561496807885,252.68971978636128 Q136.6729308650568,253.6821666045213 134.3933934454929,254.2847236012612 L134.3933934454929,254.2847236012612 L134.3933934454929,254.2847236012612 Q132.11385602592892,254.8518360687811 129.76308306200343,254.8518360687811 L129.76308306200343,254.8518360687811 L129.76308306200343,254.8518360687811 Q124.66974164016503,254.8518360687811 120.14628457321784,252.93783149090126 L120.14628457321784,252.93783149090126 L120.14628457321784,252.93783149090126 Q115.65844527845123,251.0238269130216 112.2747569212858,247.65659663712194 L112.2747569212858,247.65659663712194 L112.2747569212858,247.65659663712194 Q108.92668633630119,244.25392183200225 106.96770886636342,239.5752439749628 L106.96770886636342,239.5752439749628 L106.96770886636342,239.5752439749628 Q105.04434916860619,234.9320106471433 105.04434916860619,229.43810861804388 L105.04434916860619,229.43810861804388 L105.04434916860619,229.43810861804388 Q105.04434916860619,223.97965111816453 106.96770886636342,219.30097326112505 L106.96770886636342,219.30097326112505 L106.96770886636342,219.30097326112505 Q108.92668633630119,214.62229540408563 112.2747569212858,211.219620598966 L112.2747569212858,211.219620598966 L112.2747569212858,211.219620598966 Q115.65844527845123,207.78150126462634 120.14628457321784,205.8674966867466 L120.14628457321784,205.8674966867466 L120.14628457321784,205.8674966867466 Q124.66974164016503,203.91804757964675 129.76308306200343,203.91804757964675 L129.76308306200343,203.91804757964675 L129.76308306200343,203.91804757964675 Q131.40150058231507,203.91804757964675 133.1467714191688,204.20160381340676 L133.1467714191688,204.20160381340676 L133.1467714191688,204.20160381340676 Q134.89204225602245,204.4851600471667 136.5304597763341,205.0877170439067 L136.5304597763341,205.0877170439067 L136.5304597763341,205.0877170439067 Q138.16887729664577,205.69027404064656 139.62920595605397,206.68272085880648 L139.62920595605397,206.68272085880648 L139.62920595605397,206.68272085880648 Q141.08953461546207,207.67516767696637 142.05121446434072,209.0929488457662 L142.05121446434072,209.0929488457662 L142.05121446434072,186.62111732028873 L154.5174347275814,186.62111732028873 zM142.05121446434072,229.43810861804388 L142.05121446434072,229.43810861804388 L142.05121446434072,229.43810861804388 Q142.05121446434072,226.92154704342425 141.08953461546207,224.54676358568446 L141.08953461546207,224.54676358568446 L141.08953461546207,224.54676358568446 Q140.12785476658365,222.20742465716472 138.4538194740912,220.3643091377249 L138.4538194740912,220.3643091377249 L138.4538194740912,220.3643091377249 Q136.7797841815989,218.5566381475051 134.5358645342156,217.45785774168525 L134.5358645342156,217.45785774168525 L134.5358645342156,217.45785774168525 Q132.29194488683225,216.35907733586535 129.76308306200343,216.35907733586535 L129.76308306200343,216.35907733586535 L129.76308306200343,216.35907733586535 Q127.23422123717472,216.35907733586535 124.9903015897914,217.24519056636524 L124.9903015897914,217.24519056636524 L124.9903015897914,217.24519056636524 Q122.74638194240796,218.13130379686515 121.10796442209629,219.83264119942504 L121.10796442209629,219.83264119942504 L121.10796442209629,219.83264119942504 Q119.46954690178475,221.5339786019848 118.50786705290614,223.94420658894455 L118.50786705290614,223.94420658894455 L118.50786705290614,223.94420658894455 Q117.54618720402752,226.3898791051243 117.54618720402752,229.43810861804388 L117.54618720402752,229.43810861804388 L117.54618720402752,229.43810861804388 Q117.54618720402752,232.09644830954358 118.50786705290614,234.47123176728337 L118.50786705290614,234.47123176728337 L118.50786705290614,234.47123176728337 Q119.46954690178475,236.88145975424317 121.10796442209629,238.65368621524297 L121.10796442209629,238.65368621524297 L121.10796442209629,238.65368621524297 Q122.74638194240796,240.46135720546275 124.9903015897914,241.48924855284267 L124.9903015897914,241.48924855284267 L124.9903015897914,241.48924855284267 Q127.23422123717472,242.55258442944248 129.76308306200343,242.55258442944248 L129.76308306200343,242.55258442944248 L129.76308306200343,242.55258442944248 Q132.29194488683225,242.55258442944248 134.5358645342156,241.41835949440255 L134.5358645342156,241.41835949440255 L134.5358645342156,241.41835949440255 Q136.7797841815989,240.31957908858277 138.4538194740912,238.51190809836288 L138.4538194740912,238.51190809836288 L138.4538194740912,238.51190809836288 Q140.12785476658365,236.66879257892316 141.08953461546207,234.32945365040334 L141.08953461546207,234.32945365040334 L141.08953461546207,234.32945365040334 Q142.05121446434072,231.95467019266374 142.05121446434072,229.43810861804388 zM203.5631070203882,253.9657228382812 L199.50268099178987,248.33004269230184 L199.50268099178987,248.33004269230184 Q198.00673456020104,249.67693480266178 196.29708149552792,250.88204879614153 L196.29708149552792,250.88204879614153 L196.29708149552792,250.88204879614153 Q194.62304620303564,252.0871627896214 192.77092204963984,252.93783149090126 L192.77092204963984,252.93783149090126 L192.77092204963984,252.93783149090126 Q190.91879789624417,253.82394472140118 188.92420265412565,254.35561265970122 L188.92420265412565,254.35561265970122 L188.92420265412565,254.35561265970122 Q186.96522518418774,254.8518360687811 184.9350121698886,254.8518360687811 L184.9350121698886,254.8518360687811 L184.9350121698886,254.8518360687811 Q180.447172875122,254.8518360687811 176.5292179352463,253.2922767831013 L176.5292179352463,253.2922767831013 L176.5292179352463,253.2922767831013 Q172.57564522319,251.7327174974215 169.61937013219287,248.8262661013818 L169.61937013219287,248.8262661013818 L169.61937013219287,248.8262661013818 Q166.6630950411959,245.91981470534216 164.98905974870357,241.73736025738262 L164.98905974870357,241.73736025738262 L164.98905974870357,241.73736025738262 Q163.27940668403062,237.590350338643 163.27940668403062,232.41544907252367 L163.27940668403062,232.41544907252367 L163.27940668403062,205.7611630990866 L175.5675380863678,205.7611630990866 L175.5675380863678,232.41544907252367 L175.5675380863678,232.41544907252367 Q175.5675380863678,234.82567705948333 176.3155113021621,236.73968163736308 L176.3155113021621,236.73968163736308 L176.3155113021621,236.73968163736308 Q177.06348451795662,238.65368621524297 178.34572431646146,239.96513379638282 L178.34572431646146,239.96513379638282 L178.34572431646146,239.96513379638282 Q179.59234634278548,241.2765813775227 181.30199940745842,241.95002743270263 L181.30199940745842,241.95002743270263 L181.30199940745842,241.95002743270263 Q182.97603469995073,242.6234734878825 184.9350121698886,242.6234734878825 L184.9350121698886,242.6234734878825 L184.9350121698886,242.6234734878825 Q186.8227540954651,242.6234734878825 188.53240716013804,241.73736025738262 L188.53240716013804,241.73736025738262 L188.53240716013804,241.73736025738262 Q190.24206022481113,240.88669155610268 191.48868225113515,239.43346585808285 L191.48868225113515,239.43346585808285 L191.48868225113515,239.43346585808285 Q192.77092204963984,237.98024016006303 193.4832774932537,236.17256916984326 L193.4832774932537,236.17256916984326 L193.4832774932537,236.17256916984326 Q194.19563293686738,234.32945365040334 194.19563293686738,232.41544907252367 L194.19563293686738,232.41544907252367 L194.19563293686738,205.7611630990866 L206.55499988356596,205.7611630990866 L206.55499988356596,253.9657228382812 L203.5631070203882,253.9657228382812 z" id="svg_31"/></g> <!----></g> <!----></g></g></g></svg>